#!OML:ASF E:\Steps\Project 1\Capture day 1\Session 2\Subject.ASF
:FULLY-SPECIFIED
:DEGREES
153
root 16.9925 16.3718 21.779 -155.397 -3.00865 176.616
lowerback -29.1062 -1.56969 -8.56098
upperback -0.741506 0.322253 -0.720745
thorax 14.4744 -0.651628 3.93153
lowerneck -4.74892 -0.551318 -1.44115
upperneck 18.8833 -2.42326 4.11764
head 6.57808 -1.36839 1.33952
rclavicle 4.47266e-016 4.96962e-014
rhumerus -34.3196 -18.5887 -79.0483
rradius 30.2404
rwrist 0.111926
rhand -9.879 -416.617
rfingers 7.12502
rthumb -163.9 94.0318
lclavicle 4.47266e-016 4.96962e-014
lhumerus -26.7571 2.00387 82.827
lradius 22.2084
lwrist -2.86575
lhand -23.382 -11.6244
lfingers 7.12502
lthumb 3.07415 18.3332
rfemur -23.7695 4.5085 19.9717
rtibia 8.14598
rfoot -17.6982 -1.3171
rtoes -4.94546
lfemur -27.227 -12.1147 -20.5822
ltibia 13.6973
lfoot -8.35944 1.50263
ltoes -50.1631
154
root 16.9996 16.3695 21.7919 -155.398 -3.03275 176.575
lowerback -28.97 -1.54472 -8.55266
upperback -0.690819 0.353746 -0.717891
thorax 14.4677 -0.632994 3.94543
lowerneck -4.64635 -0.495345 -1.60837
upperneck 18.8671 -2.36931 4.31367
head 6.55641 -1.34273 1.43474
rclavicle -6.95746e-016 -1.27222e-014
rhumerus -34.3434 -18.6186 -78.9243
rradius 29.9874
rwrist -0.188247
rhand -10.3215 -415.333
rfingers 7.12502
rthumb -164.326 95.2816
lclavicle -6.95746e-016 -1.27222e-014
lhumerus -26.7773 2.07725 82.8065
lradius 22.2667
lwrist -2.68634
lhand -23.2943 -11.4721
lfingers 7.12502
lthumb 3.15888 18.4843
rfemur -23.833 4.30548 19.9999
rtibia 8.18851
rfoot -17.6119 -1.1611
rtoes -4.85486
lfemur -27.544 -12.3291 -20.5571
ltibia 14.2842
lfoot -8.53927 1.71721
ltoes -51.1638
155
root 17.0087 16.3697 21.8028 -155.481 -3.18834 176.54
lowerback -28.7106 -1.53483 -8.52784
upperback -0.641539 0.353031 -0.728323
thorax 14.4066 -0.623243 3.92484
lowerneck -4.4089 -0.334959 -1.84115
upperneck 18.7624 -2.1771 4.60882
head 6.47889 -1.24978 1.583
rclavicle -2.45996e-014 5.56597e-015
rhumerus -34.4138 -18.235 -79.0374
rradius 30.0487
rwrist -0.418798
rhand -10.6661 -414.349
rfingers 7.12502
rthumb -164.658 96.2405
lclavicle -2.45996e-014 5.56597e-015
lhumerus -26.8093 1.94887 82.778
lradius 22.2805
lwrist -2.46525
lhand -23.2596 -11.8521
lfingers 7.12502
lthumb 3.19239 18.1038
rfemur -23.5714 4.15912 20.0359
rtibia 7.80051
rfoot -17.3875 -1.12663
rtoes -3.97386
lfemur -27.871 -12.5771 -20.5019
ltibia 15
lfoot -8.7209 1.80891
ltoes -51.6406
156
root 17.0201 16.3709 21.8141 -155.534 -3.40897 176.531
lowerback -28.4323 -1.50058 -8.40973
upperback -0.597463 0.358825 -0.802328
thorax 14.3308 -0.60238 3.78694
lowerneck -4.41609 -0.287471 -1.81307
upperneck 18.8674 -2.15195 4.71165
head 6.51341 -1.23185 1.61275
rclavicle -1.77912e-014 4.85035e-014
rhumerus -34.4835 -18.7267 -78.7198
rradius 29.8374
rwrist -1.34772
rhand -10.2462 -407.726
rfingers 7.12502
rthumb -164.253 102.895
lclavicle -1.77912e-014 4.85035e-014
lhumerus -26.857 1.74228 82.6645
lradius 22.4345
lwrist -2.41576
lhand -23.232 -11.9482
lfingers 7.12502
lthumb 3.21903 18.0072
rfemur -23.7107 4.13733 20.1226
rtibia 8.18885
rfoot -17.6387 -1.27439
rtoes -3.20754
lfemur -28.2839 -12.7028 -20.4117
ltibia 15.7376
lfoot -8.94984 1.64735
ltoes -50.7073
157
root 17.0294 16.3701 21.828 -155.527 -3.56046 176.494
lowerback -28.2769 -1.45171 -8.29546
upperback -0.532679 0.398821 -0.887411
thorax 14.3319 -0.570724 3.6508
lowerneck -4.4571 -0.297383 -1.67528
upperneck 18.9849 -2.18406 4.64095
head 6.55784 -1.2451 1.56441
rclavicle 1.54058e-015 3.73715e-014
rhumerus -34.4871 -18.3956 -79.1015
rradius 29.9542
rwrist -0.395273
rhand -10.6911 -412.425
rfingers 7.12502
rthumb -164.682 98.1621
lclavicle 1.54058e-015 3.73715e-014
lhumerus -26.8749 1.7244 82.5391
lradius 22.648
lwrist -2.39592
lhand -22.9775 -11.7368
lfingers 7.12502
lthumb 3.46478 18.2148
rfemur -23.8056 4.00964 20.1711
rtibia 8.25462
rfoot -17.7018 -1.25324
rtoes -3.48251
lfemur -28.7184 -12.9476 -20.3318
ltibia 16.4171
lfoot -9.13451 1.70853
ltoes -50.7727
158
root 17.0348 16.3683 21.8435 -155.451 -3.61801 176.367
lowerback -28.2248 -1.41123 -8.28439
upperback -0.490856 0.461404 -0.961201
thorax 14.3494 -0.539437 3.58926
lowerneck -4.30674 -0.144753 -1.69814
upperneck 19.0418 -1.98843 4.64571
head 6.54268 -1.15869 1.58392
rclavicle -3.926e-015 -2.14687e-014
rhumerus -34.6998 -18.6296 -78.8588
rradius 30.1554
rwrist -1.23909
rhand -10.2938 -411.146
rfingers 7.12502
rthumb -164.299 99.4711
lclavicle -3.926e-015 -2.14687e-014
lhumerus -26.9013 1.85315 82.4619
lradius 22.7425
lwrist -2.43641
lhand -22.799 -11.7142
lfingers 7.12502
lthumb 3.63722 18.2345
rfemur -23.9679 3.80112 20.0717
rtibia 8.27953
rfoot -17.6153 -1.05883
rtoes -3.47265
lfemur -29.2765 -13.3688 -20.3334
ltibia 17.2432
lfoot -9.27598 2.07081
ltoes -51.3742
159
root 17.041 16.366 21.8601 -155.365 -3.6221 176.231
lowerback -28.1265 -1.34905 -8.33789
upperback -0.47236 0.563797 -1.02335
thorax 14.3117 -0.49304 3.59032
lowerneck -4.17886 -0.109606 -1.6948
upperneck 19.1127 -1.95693 4.62866
head 6.54149 -1.15133 1.58035
rclavicle -1.08338e-014 2.10712e-014
rhumerus -35.0248 -17.9076 -79.1744
rradius 30.7305
rwrist -0.768044
rhand -10.9382 -409.147
rfingers 7.12502
rthumb -164.92 101.422
lclavicle -1.08338e-014 2.10712e-014
lhumerus -26.8812 1.85467 82.4628
lradius 22.7059
lwrist -2.48754
lhand -23.1025 -11.5876
lfingers 7.12502
lthumb 3.34415 18.366
rfemur -23.9681 3.16012 20.0233
rtibia 7.9179
rfoot -17.2585 -0.397597
rtoes -2.72037
lfemur -29.9378 -13.7327 -20.3352
ltibia 18.211
lfoot -9.51393 2.34948
ltoes -51.1459
160
root 17.0539 16.3634 21.8799 -155.381 -3.77972 176.286
lowerback -27.9135 -1.30387 -8.26392
upperback -0.394111 0.598625 -0.989797
thorax 14.3012 -0.466491 3.60456
lowerneck -4.25548 -0.216198 -1.68751
upperneck 19.2428 -2.10539 4.55286
head 6.6012 -1.22834 1.54426
rclavicle 3.08116e-015 2.64384e-014
rhumerus -34.9201 -18.344 -78.8708
rradius 30.5766
rwrist -1.58879
rhand -10.0572 -408.199
rfingers 7.12502
rthumb -164.071 102.436
lclavicle 3.08116e-015 2.64384e-014
lhumerus -26.7672 1.75044 82.517
lradius 22.7237
lwrist -2.38234
lhand -23.3942 -11.2418
lfingers 7.12502
lthumb 3.06243 18.7159
rfemur -24.3889 3.57581 20.0743
rtibia 8.68585
rfoot -17.645 -0.887838
rtoes -2.3235
lfemur -30.5298 -13.9375 -20.0661
ltibia 19.1317
lfoot -9.69498 2.4464
ltoes -50.3467
161
root 17.0678 16.3611 21.9003 -155.36 -4.0201 176.361
lowerback -27.8034 -1.23537 -8.09909
upperback -0.252494 0.662118 -1.02155
thorax 14.4124 -0.424002 3.50928
lowerneck -4.26743 -0.194413 -1.74267
upperneck 19.2227 -2.10317 4.75573
head 6.59882 -1.21412 1.61893
rclavicle 1.54058e-015 2.90226e-014
rhumerus -34.5325 -18.5773 -79.0798
rradius 30.2448
rwrist -0.145978
rhand -10.2937 -412.303
rfingers 7.12502
rthumb -164.299 98.314
lclavicle 1.54058e-015 2.90226e-014
lhumerus -26.5725 1.65734 82.4359
lradius 22.8444
lwrist -2.14092
lhand -23.0399 -11.2524
lfingers 7.12502
lthumb 3.40453 18.7002
rfemur -24.5882 3.53446 20.2537
rtibia 8.88537
rfoot -17.698 -1.0291
rtoes -2.53045
lfemur -31.2588 -13.9961 -19.7937
ltibia 20.2233
lfoot -9.81843 2.49783
ltoes -49.6398
162
root 17.0848 16.3537 21.9127 -155.554 -4.29243 176.762
lowerback -27.4923 -1.12409 -7.70497
upperback -0.136875 0.676311 -0.898776
thorax 14.4087 -0.382695 3.44228
lowerneck -4.16441 -0.0439722 -1.90506
upperneck 19.0434 -1.8863 4.95063
head 6.51756 -1.10228 1.72445
rclavicle -5.26779e-015 3.77691e-015
rhumerus -34.4589 -19.3073 -78.5769
rradius 29.8815
rwrist -1.27527
rhand -9.89756 -411.64
rfingers 7.12502
rthumb -163.918 99.0073
lclavicle -5.26779e-015 3.77691e-015
lhumerus -26.5336 1.76763 82.3539
lradius 22.9587
lwrist -1.9202
lhand -22.751 -11.5764
lfingers 7.12502
lthumb 3.68355 18.3715
rfemur -24.3759 3.50299 20.8366
rtibia 8.68373
rfoot -17.5873 -1.03367
rtoes -3.28107
lfemur -31.8392 -14.0159 -19.1719
ltibia 21.4265
lfoot -9.97209 2.69047
ltoes -49.9243
163
root 17.0904 16.3529 21.9327 -155.38 -4.28306 176.678
lowerback -27.4214 -1.05054 -7.67166
upperback -0.116155 0.767771 -0.947306
thorax 14.3901 -0.336149 3.40645
lowerneck -4.23676 -0.0678087 -1.91233
upperneck 19.0624 -1.89808 4.88031
head 6.53638 -1.10921 1.70245
rclavicle 1.88845e-014 -1.8487e-014
rhumerus -34.537 -18.34 -79.0439
rradius 30.3116
rwrist -0.330352
rhand -9.5297 -415.852
rfingers 7.12502
rthumb -163.564 94.8245
lclavicle 1.88845e-014 -1.8487e-014
lhumerus -26.4904 1.7943 82.3124
lradius 23.0364
lwrist -1.80711
lhand -22.755 -11.7327
lfingers 7.12502
lthumb 3.67974 18.2152
rfemur -24.7209 3.20625 20.8025
rtibia 8.76717
rfoot -17.5911 -0.701555
rtoes -3.26604
lfemur -32.7657 -14.1461 -19.1526
ltibia 22.6631
lfoot -9.90829 2.92308
ltoes -50.1794
164
root 17.1024 16.3489 21.968 -154.981 -4.36796 176.741
lowerback -27.3768 -0.971821 -7.55654
upperback -0.217938 0.814601 -0.93892
thorax 14.2479 -0.303263 3.36931
lowerneck -4.19581 -0.0829604 -1.96739
upperneck 19.0762 -1.92521 4.92477
head 6.53517 -1.12394 1.7243
rclavicle 2.73329e-015 2.56432e-014
rhumerus -34.616 -18.0111 -79.1053
rradius 30.5242
rwrist -0.744459
rhand -10.7738 -410.987
rfingers 7.12502
rthumb -164.762 99.594
lclavicle 2.73329e-015 2.56432e-014
lhumerus -26.4903 1.80725 82.3303
lradius 22.9927
lwrist -2.08408
lhand -23.0846 -11.8261
lfingers 7.12502
lthumb 3.36141 18.1272
rfemur -25.4865 3.42112 20.9033
rtibia 9.15253
rfoot -17.6613 -0.876341
rtoes -2.67646
lfemur -34.2148 -13.9087 -18.9318
ltibia 24.3035
lfoot -9.71245 2.86949
ltoes -50.9852
